<?xml version="1.0" encoding="utf-8"?>
<!-- Generator: Adobe Illustrator 19.2.0, SVG Export Plug-In . SVG Version: 6.00 Build 0)  -->
<svg version="1.1" id="Peaceinc" xmlns="http://www.w3.org/2000/svg" xmlns:xlink="http://www.w3.org/1999/xlink" x="0px" y="0px"
	 viewBox="0 0 995.2 171.6" style="enable-background:new 0 0 995.2 171.6;" xml:space="preserve">
<g>
	<path id="P" d="M0,4.9c10.4-1.7,23.9-3.2,41.2-3.2c10.6,0,19.7,1.2,27.6,3.7s14.1,5.9,19,10.4c4.9,4.2,8.9,9.9,11.3,16.5
		c2,5.4,3.2,11.6,3.2,18.2c0,9.6-1.7,18-5.4,25.1c-2,3.9-4.4,7.4-7.4,10.6c-6.2,6.4-14.3,11.3-23.7,14.3c-8.1,2.7-17.3,3.9-27.1,3.9
		c-6.4,0-12.3-0.2-17.3-1.5v15.8v13.6v15.5v21.7H10.6H0v-11.8V143v-21.4v-21V78.4V56V35.7V20V4.9z M21.4,85.1
		c4.7,1.2,10.6,1.7,17.7,1.7c10.6,0,19.2-2,26.1-6.2c5.7-3.5,10.1-8.1,12.6-14.3c2-4.4,3-9.4,3-15.3c0-5.2-1-9.9-2.5-13.8
		c-3.2-7.4-8.9-12.6-16.8-15.5c-5.7-2.2-12.3-3.2-19.7-3.2c-9.4,0-16.5,0.7-20.2,1.7V38v17.3v16.5v13.3H21.4z"/>
	<path id="E01" d="M217.2,91.2h-20.5h-25.9h-18.2v18.2v24.9v16.8h17.5h25.4h29.1v9.1v8.9h-14.8h-27.4h-31.8h-19.5v-22.2v-20.5V82.1
		V58.4V33.3V3h26.1H195h25.9v18h-22.4h-29.6h-16.3v16.5v25.4v10.6h20.2h24.7h19.7v9.1V91.2z"/>
	<path id="A" d="M628.6,91.2h-20.5h-25.9H564v18.2v24.9v16.8h17.5h25.4H636v9.1v8.9h-14.8h-27.6h-31.6h-19.5v-22.2v-20.5V82.1V58.4
		V33.3V3h26.1h37.7h25.9v18h-22.4h-29.6H564v16.5v25.4v10.6h20.2h24.7h19.7v9.1V91.2L628.6,91.2z"/>
	<path id="C" d="M279.3,116.9l-4.7,14.3l-6.2,19l-6.4,19h-9.9h-12.3l6.2-17.7l10.6-31.6L266,92l9.4-27.4l8.4-24.7l8.1-23.9l4.4-13.3
		h12.6h13.6l6.4,19l6.4,18.5l7.9,23.2l7.6,22.2l10.1,29.3l11.6,34l6.9,20h-10.8h-12.1l-5.2-15l-7.9-22.9l-4.9-14.3h-15.8h-25.9
		h-17.5V116.9z M333.8,100.1l-8.6-25.4l-7.6-22.4c-3.7-10.8-6.2-20.7-8.6-30.3h-0.5c-2.5,9.9-5.2,20-8.4,30.1l-11.6,34l-4.7,14.1h17
		h19.7H333.8z"/>
	<path id="E02" d="M515.7,163.7c-4.7,2.2-11.8,4.7-21.2,6.2c-6.7,1-14.3,1.7-22.7,1.7c-11.8,0-22.7-2-32.5-5.4
		c-9.4-3.5-17.7-8.4-24.7-14.8c-6.2-5.7-11.6-12.6-15.5-20.7c-4.2-8.4-6.9-17.7-8.4-28.6c-0.5-4.7-1-9.4-1-14.5
		c0-9.4,1.2-18.2,3.5-26.6c3-10.6,7.4-20.2,13.6-28.4c5.9-8.1,13.3-14.8,22.2-20c7.1-4.4,15.3-7.6,24.2-9.9C460.5,1,468.4,0,476.8,0
		c9.1,0,16.5,0.7,22.7,2c7.9,1.5,13.6,3.7,16.8,5.4l-2.5,8.6l-2.7,9.1c-3.7-1.7-8.4-3.5-13.3-4.7c-5.9-1.5-12.8-2.2-20.2-2.2
		c-12.6,0-23.9,2.7-33.3,7.6c-8.6,4.4-15.5,11.1-21,19.2c-4.7,7.4-7.9,16-9.6,26.1c-0.7,4.9-1.2,10.1-1.2,15.5
		c0,10.6,1.7,20.5,4.7,28.8c3.2,8.9,8.4,16.5,14.8,22.4c5.7,5.2,12.8,9.4,21,11.8c6.9,2.2,14.8,3.5,23.4,3.5
		c5.9,0,11.6-0.5,17.3-1.5c6.9-1.2,13.1-3,17.7-5.4l2.2,8.6L515.7,163.7z"/>
	<path id="i" d="M739.6,16.3c0.2,3.7-1.2,7.1-3.5,9.4c-2.5,2.5-5.9,3.9-10.4,3.9c-3.9,0-7.1-1.5-9.4-3.9c-2.2-2.5-3.7-5.7-3.7-9.4
		c0-4.4,1.7-8.1,4.9-10.6c2.2-2,5.2-3,8.6-3c4.4,0,7.9,1.7,10.4,4.7C738.6,9.6,739.6,12.8,739.6,16.3z M715.4,169.1v-10.8v-27.1
		v-28.8V71.2V49.8h10.8h10.8v15.5v26.4v31.1v31.1v15h-10.8h-10.8V169.1z"/>
	<path id="n" d="M773.1,82.1c0-6.4,0-12.3-0.2-17.7c-0.2-4.9-0.5-9.9-0.7-14.5h9.9h9.4l0.5,9.4l0.7,10.4h0.5
		c2.7-5.4,7.4-10.6,13.3-14.8c4.7-3.2,10.4-5.7,17-6.9c3-0.5,5.9-0.7,9.1-0.7c5.9,0,12.8,1.2,19.5,4.7c4.9,2.7,9.9,6.4,13.6,11.8
		c3,4.2,5.4,9.6,7.1,16c1.2,5.2,2,11.3,2,18.2v16.8v17.7v14.5v13.8v8.4h-10.1H853V158v-15v-19.2v-14.3v-9.1c0-8.9-1.5-17-5.2-23.2
		c-2.7-4.7-6.7-8.4-12.1-10.4c-3-1-6.4-1.7-10.4-1.7c-4.9,0-9.6,1.2-13.6,3.2c-4.2,2.2-7.9,5.4-10.8,9.4c-2.2,3-3.7,6.2-4.7,9.6
		c-1,2.7-1.5,6.4-1.5,10.1v20.2v20v20.7v10.8h-10.8h-11.1v-28.6V124v-21.9v-20H773.1z"/>
	<path id="c" d="M995,164.7c-1.7,1-4.4,2-7.6,3c-3.9,1.2-8.9,2.5-14.3,3.2c-3.7,0.5-7.9,0.7-12.3,0.7c-5.7,0-10.8-0.5-15.8-1.7
		c-4.9-1.2-9.6-2.7-13.8-4.9c-5.2-2.7-9.6-6.2-13.6-10.1c-4.2-4.4-7.6-9.4-10.4-15c-2-4.2-3.5-8.9-4.4-13.8c-1-4.7-1.5-9.9-1.5-15.3
		c0-8.1,1.2-15.8,3.5-22.7c2.2-6.9,5.7-13.3,10.1-18.7c3.5-4.2,7.6-8.1,12.1-11.1c6.2-4.2,13.3-7.4,21.2-9.1
		c5.4-1.2,11.1-1.7,17-1.7c5.4,0,10.4,0.5,15,1.5c6.4,1.2,11.6,3,15,4.7l-2.5,8.6l-2.5,8.1c-3-1.7-6.7-3.2-11.6-4.2
		c-3.9-0.7-8.4-1.5-13.6-1.5c-12.8,0-22.9,4.4-30.1,11.8c-4.2,4.4-7.4,9.9-9.4,15.8c-1.7,5.4-2.7,11.3-2.7,17.5
		c0,5.2,0.5,9.9,1.7,14.3c1.2,4.7,3,8.6,5.4,12.3c3.7,5.9,8.6,10.4,14.8,13.6c5.7,3,12.3,4.4,19.5,4.4c4.2,0,7.9-0.2,11.1-1
		c6.4-1.2,11.3-3.2,15.5-4.9l2,8.4L995,164.7z"/>
</g>
</svg>
